<svg xmlns="http://www.w3.org/2000/svg" width="253.224" height="77.994" viewBox="0 0 253.224 77.994"><path fill-rule="evenodd" clip-rule="evenodd" fill="#024F9E" d="M138.587 34.382c-3.4-3.008-6.863-3.76-14.307-3.663-3.41.042-6.087.188-6.087.188V55.97h6.574V37.85s8.25-.962 10.146 2.988c1.063 2.216.84 4.678.864 7.615.007 1.158-.09 7.518-.09 7.518h6.864s.014-3.193 0-7.326c-.015-4.63.292-10.502-3.963-14.262zm-48.364 1.83c.05 5.848.074 10.685.774 12.82 1.876 5.722 9.468 7.42 14.918 7.515 5.316.1 8.41-.192 8.41-.192v-6.167s-4.158.098-8.797.098c-2.128 0-6.864-.868-7.444-4.05-.452-2.49-.19-5.687-.19-5.687h14.4l.1-6.938H97.698v-7.71h17.01v-6.556H90.224s-.066 8.994 0 16.867zM38.99 0C17.455 0 0 17.46 0 38.998c0 21.536 17.455 38.996 38.99 38.996 21.532 0 38.99-17.46 38.99-38.996C77.98 17.458 60.52 0 38.99 0zm0 74.598c-19.657 0-35.593-15.94-35.593-35.6 0-19.66 15.936-35.6 35.593-35.6s35.595 15.94 35.595 35.6c0 19.66-15.938 35.6-35.595 35.6zm122.894-43.69c-4.135-.842-9.916.657-13.05 4.34-7.635 8.974 0 25.638 14.79 20.144-.967-2.41-1.16-2.892-2.225-5.88-10.343 2.604-11.365-11.605-3.382-12.048 6.958-.383 7.346 5.303 7.248 11.375-.045 2.29 0 4.433 0 7.325 1.543.075 4.605.138 6.48 0 .114-2.588.17-5.563.188-7.615.102-9.735-2.508-16.097-10.05-17.642zm13.92 8.485c-2.708 6.84 1.258 16.19 9.57 17.06 3.948.414 6.864.193 8.99-1.445.096 6.65-6.187 9.156-10.73 5.395-.483.392-4.255 4.34-4.735 4.92 8.986 8.092 21.748 1.732 21.942-8.195.063-3.47.594-11.02-.098-15.518-2.032-13.204-20.024-14.642-24.94-2.217zm18.076 6.652c-3.19 8.192-15.178 3.177-11.89-4.34 3.288-7.516 15.082-3.856 11.89 4.34zm52.973-24.12v-.097c.965-.29 1.688-.963 1.688-1.83 0-.772-.335-1.35-.82-1.637-.528-.385-1.254-.624-2.895-.624-1.5 0-2.61.142-3.238.288v7.754h2.127v-2.943h.82c.868 0 1.304.34 1.448 1.16.192.817.336 1.49.582 1.783h2.315c-.145-.293-.29-.773-.53-1.88-.245-1.063-.675-1.683-1.497-1.974zm-2.32-.58h-.773v-2.07c.193 0 .53-.048.918-.048.968 0 1.497.384 1.497 1.057 0 .725-.677 1.06-1.64 1.06zm.388-7.705c-4.685 0-8.45 3.614-8.45 8.09 0 4.578 3.766 8.187 8.4 8.187 4.687 0 8.354-3.61 8.354-8.186 0-4.477-3.667-8.09-8.303-8.09zm-.05 14.397c-3.477 0-6.083-2.792-6.083-6.258 0-3.516 2.606-6.26 5.988-6.26 3.576 0 6.133 2.744 6.133 6.26 0 3.465-2.557 6.307-6.037 6.257zM233.03 48.07c-4.058 3.755-10.15.67-10.056-3.86.13-5.98 5.61-8.19 10.057-4.622 1.522-1.438 3.76-3.125 4.643-5.206-8.39-7.327-21.845-2.794-21.752 9.83.08 10.705 12.855 17.543 22.233 8.966-1.642-1.833-3.864-4.052-5.122-5.11zm-27.355 8.383l6.86-.1V31.298l-6.86.096v25.06zm3.48-35.278c-5.51.098-5.125 6.844-.096 7.038 4.344.164 5.22-7.038.096-7.038zM36.368 61.54c-7.883-.062-13.908.333-18.992 2.2 10.75 10.505 32.01 10.63 42.51.314-7.105 1.572-15.28-2.452-23.518-2.515zm-14.59-42.08c-4.463-.19-5.32-.968-8.175-1.384-5.155 5.03-9.09 16.86-7.23 26.98 1.01 5.525 3.785 11.246 6.946 14.468 1.763-.94 4.53-2.074 8.46-2.576 0-.378.002-37.097 0-37.49zm2.64.03v37.05h3.775V19.49h-3.775zm1.826-10.66c-2.604 1.054-6.247 3.102-8.05 4.656 5.116.753 8.912 1.164 13.626.92 3.613-.186 7.714-.5 10.942-1.173 1.805-.375 2.472-1.532 4.233-1.55 3.732-.043 7.256 2.967 9.39 5.7.792 1.01 2.006 2.98 2.307 4.487.212 1.068-.242 1.934-.712 1.97-2.18.17-3.562-3.017-7-4.193-4.153-1.415-8.016-.293-13.883-.25 0 .21.042 14.134 0 14.302 5.365.166 8.563-.84 10.402-3.95l.442-1.208s.585-.278.555.108c-.125 1.62-.49 4.838-.454 7.55.04 3.024.38 7.306.38 7.306s-.308.332-.53-.063c-.602-1.068-.84-2.272-1.862-3.123-2.19-1.827-5.606-2.22-8.9-2.06v18.285c9.264-.084 12.486 2.7 20.306 2.435 2.98-.1 6.223-1.39 7.63-3.397 2.156-3.076 1.887-9.055-.838-10.86-2.843-1.878-8.89-1.383-8.386 3.188.713.335 1.77 1.32 1.51 2.937-.07.442-.76 2.666-3.354 1.93-3.102-.882-3.313-4.4-2.683-7.34 1.204-5.607 9.725-7.757 14.673-4.487 1.06.7 2.49 1.866 3.648 3.86.423.726.964 2.587 1.07 3.743.116.17.124-.158.187-.432 7.21-28.135-19.83-49.354-44.65-39.29z"/></svg>